# xmcd
#
# Track frame offsets:
#	150
#	19563
#	37236
#	56597
#	73455
#	91969
#	107127
#	124935
#	144118
#	159527
#	174414
#	192416
#	211453
#	229557
#	244690
#	263210
#	279239
#	297234
#
# Disc length: 4207 seconds
#
# Revision: 0
# Processed by: cddbd v1.5PL3 Copyright (c) Steve Scherf et al.
# Submitted via: dBpowerAMP V4.0
#
DISCID=09106d12
DTITLE=Randy Crawford - Love Songs
DYEAR=2002
DGENRE=Pop
TTITLE0=One day I'll fly away
TTITLE1=You might need somebody
TTITLE2=Streetlife
TTITLE3=Rainy night in Georgia
TTITLE4=Almaz
TTITLE5=You bring the sun out
TTITLE6=Tender falls the rain
TTITLE7=Imagine
TTITLE8=Secret combination
TTITLE9=One hello
TTITLE10=Knockin' on heaven's door
TTITLE11=Time for love
TTITLE12=Now we may begin
TTITLE13=When your life was low
TTITLE14=Love is like a newborn child
TTITLE15=I've never been to me
TTITLE16=I stand accused
TTITLE17=Who's crying now
EXTD=
EXTT0=
EXTT1=
EXTT2=
EXTT3=
EXTT4=
EXTT5=
EXTT6=
EXTT7=
EXTT8=
EXTT9=
EXTT10=
EXTT11=
EXTT12=
EXTT13=
EXTT14=
EXTT15=
EXTT16=
EXTT17=
PLAYORDER=
